# xmcd
#
# Track frame offsets:
#	150
#	14777
#	30152
#	47702
#	64655
#	77180
#	89255
#	104705
#	117832
#	133582
#
# Disc length: 2015 seconds
#
# Revision: 1
# Processed by: cddbd v1.5.2PL0 Copyright (c) Steve Scherf et al.
# Submitted via: EasyCDDAExtractor 15.3.0.1
#
DISCID=8107dd0a
DTITLE=Ana Barbara - Te Regalo La Lluvia
DYEAR=2001
DGENRE=Latin
TTITLE0=Eso No Es De Hombres
TTITLE1=Te Regalo La Lluvia
TTITLE2=Ya Te Puedes Ir
TTITLE3=Quien Te Invento
TTITLE4=Bailare
TTITLE5=Te Extraño (Un Te Quiero)
TTITLE6=Ahora Que
TTITLE7=Con Esta Hembra No Se Juega
TTITLE8=Estar Sin Ti
TTITLE9=Sueño Mojado
EXTD=
EXTT0=
EXTT1=
EXTT2=
EXTT3=
EXTT4=
EXTT5=
EXTT6=
EXTT7=
EXTT8=
EXTT9=
PLAYORDER=
